<svg width="14" height="12" viewBox="0 0 14 12" fill="none" xmlns="http://www.w3.org/2000/svg">
<path d="M11.5906 1.65196C11.0121 1.18737 10.277 0.958684 9.53462 1.01236C8.79227 1.06604 8.09837 1.39806 7.59387 1.94096L7.17151 2.37197L6.74916 1.94096C6.24466 1.39806 5.55075 1.06604 4.80841 1.01236C4.06607 0.958684 3.33097 1.18737 2.75244 1.65196C2.43687 1.92242 2.18003 2.25372 1.99756 2.62572C1.81508 2.99773 1.71077 3.40266 1.69097 3.81591C1.67117 4.22916 1.73629 4.64208 1.88238 5.02958C2.02847 5.41708 2.25247 5.77105 2.54076 6.06998L6.68566 10.316C6.74834 10.3811 6.82366 10.4329 6.90708 10.4683C6.9905 10.5036 7.08028 10.5219 7.17101 10.5219C7.26173 10.5219 7.35152 10.5036 7.43494 10.4683C7.51836 10.4329 7.59368 10.3811 7.65636 10.316L11.8013 6.06998C12.0899 5.77126 12.3142 5.41737 12.4605 5.02988C12.6069 4.6424 12.6722 4.22941 12.6525 3.81608C12.6327 3.40275 12.5284 2.99773 12.3459 2.62568C12.1633 2.25362 11.9063 1.92233 11.5906 1.65196Z" fill="white" stroke="#FF8450" stroke-width="2"/>
</svg>
